<svg width="40" height="40" viewBox="0 0 40 40" fill="none" xmlns="http://www.w3.org/2000/svg">
<g clip-path="url(#clip0_107_10957)">
<rect x="0.546181" y="6.37235" width="38.9609" height="27.3091" stroke="#545454" stroke-width="1.09236"/>
<path d="M7.11688 16.9904H9.08313V19.0368H9.19965L10.5396 16.9904H12.3602L10.7217 19.3936L12.3602 22.4668H10.1755L9.1778 20.4204H9.08313V22.4668H7.11688V16.9904ZM14.5344 20.5661V22.4668H12.5682V16.9904H15.7287C16.3405 16.9904 16.8284 17.1434 17.1779 17.4565C17.5421 17.7696 17.7168 18.2066 17.7168 18.7673C17.7168 19.5757 17.3818 20.1146 16.7119 20.3986L17.8115 22.4668H15.6268L14.7019 20.5661H14.5344ZM14.5344 18.3741V19.1824H15.2918C15.5175 19.1824 15.6341 19.0441 15.6341 18.7819C15.6341 18.5052 15.5175 18.3741 15.2918 18.3741H14.5344ZM22.6824 19.0368V20.4204H20.1991V21.0831H23.0028V22.4668H18.2328V16.9904H22.8935V18.3741H20.1991V19.0368H22.6824ZM23.5703 16.9904H25.5366V21.0831H28.1582V22.4668H23.5703V16.9904ZM28.6091 16.9904H30.5754V21.0831H33.197V22.4668H28.6091V16.9904Z" fill="#545454"/>
</g>
<defs>
<clipPath id="clip0_107_10957">
<rect width="40" height="40" fill="white"/>
</clipPath>
</defs>
</svg>
